<svg xmlns="http://www.w3.org/2000/svg" viewBox="0 0 24 24" fill="#2563EB">
  <path d="M12 2C6.477 2 2 6.477 2 12s4.477 10 10 10 10-4.477 10-10S17.523 2 12 2zm0 18c-4.41 0-8-3.59-8-8s3.59-8 8-8 8 3.59 8 8-3.59 8-8 8zm1-8.915V5.05c3.557.447 6.425 3.25 6.95 6.782h-4.332a2.64 2.64 0 0 0-2.618-2.747zm-2 0a2.64 2.64 0 0 0-2.618 2.747H4.05c.525-3.532 3.393-6.335 6.95-6.782v6.035zM11 13.085v5.865c-3.14-.622-5.63-3.107-6.257-6.248h4.41c.29.176.623.29.982.355.244.043.493.04.73.028H11zm2 5.865v-5.865h.135c.237.012.486.015.73-.028.359-.065.692-.179.982-.355h4.41c-.627 3.141-3.117 5.626-6.257 6.248z"/>
</svg>
